<svg width="25" height="24" viewBox="0 0 25 24" fill="none" xmlns="http://www.w3.org/2000/svg">
<path d="M12.0078 20C7.59781 20 4.00781 16.41 4.00781 12C4.00781 7.59 7.59781 4 12.0078 4C16.4178 4 20.0078 7.59 20.0078 12C20.0078 16.41 16.4178 20 12.0078 20ZM12.0078 2C10.6946 2 9.39423 2.25866 8.18098 2.7612C6.96772 3.26375 5.86533 4.00035 4.93674 4.92893C3.06138 6.8043 2.00781 9.34784 2.00781 12C2.00781 14.6522 3.06138 17.1957 4.93674 19.0711C5.86533 19.9997 6.96772 20.7362 8.18098 21.2388C9.39423 21.7413 10.6946 22 12.0078 22C14.66 22 17.2035 20.9464 19.0789 19.0711C20.9542 17.1957 22.0078 14.6522 22.0078 12C22.0078 10.6868 21.7492 9.38642 21.2466 8.17317C20.7441 6.95991 20.0075 5.85752 19.0789 4.92893C18.1503 4.00035 17.0479 3.26375 15.8346 2.7612C14.6214 2.25866 13.321 2 12.0078 2ZM13.0078 7H11.0078V11H7.00781V13H11.0078V17H13.0078V13H17.0078V11H13.0078V7Z" fill="#177FF4"/>
</svg>
